<svg width="70" height="70" viewBox="0 0 70 70" fill="none" xmlns="http://www.w3.org/2000/svg">
<circle cx="35" cy="35" r="35" fill="#ABE4FF"/>
<path d="M40.6734 22.2062C40.6734 25.4125 40.6734 29.5453 40.6734 32.7531H29.325C29.325 29.5469 29.325 25.4141 29.325 22.2062H40.6734ZM28.1797 19.0547H26.2109L27.6891 21.4578V51.4875C27.6891 55.3375 30.95 58.4375 35 58.4375C39.05 58.4375 42.3109 55.3391 42.3109 51.4875V21.4578L43.7891 19.0547H41.8203H28.1797ZM32.5641 35.4734C33.3109 35.4734 33.9156 36.0484 33.9156 36.7594C33.9156 37.4703 33.3109 38.0484 32.5641 38.0484C31.8172 38.0484 31.2094 37.4719 31.2094 36.7594C31.2094 36.0469 31.8156 35.4734 32.5641 35.4734ZM36.9531 37.5797C38.1313 37.5797 39.0859 38.4875 39.0859 39.6062C39.0859 40.725 38.1313 41.6328 36.9531 41.6328C35.775 41.6328 34.8203 40.725 34.8203 39.6062C34.8203 38.4875 35.775 37.5797 36.9531 37.5797ZM39.0125 30.475C39.0203 31.1859 38.4203 31.7672 37.6734 31.775C36.9266 31.7828 36.3125 31.2125 36.3063 30.5016C36.3063 30.4938 36.3063 30.4828 36.3063 30.475C36.2984 29.7641 36.8984 29.1828 37.6453 29.175C38.3922 29.1672 39.0063 29.7375 39.0125 30.4484C39.0125 30.4578 39.0125 30.4672 39.0125 30.475ZM39.2594 16.4344C39.2672 17.1453 38.6672 17.7266 37.9203 17.7344C37.1734 17.7422 36.5594 17.1719 36.5531 16.4609C36.5531 16.4531 36.5531 16.4422 36.5531 16.4344C36.5453 15.7234 37.1453 15.1422 37.8922 15.1344C38.6391 15.1266 39.2531 15.6969 39.2594 16.4078C39.2594 16.4156 39.2594 16.4266 39.2594 16.4344ZM35.6469 13.5891C35.6469 14.7094 34.6922 15.6156 33.5141 15.6156C32.3359 15.6156 31.3813 14.7078 31.3813 13.5891C31.3813 12.4703 32.3359 11.5625 33.5141 11.5625C34.6922 11.5625 35.6469 12.4687 35.6469 13.5891Z" fill="#0C5599"/>
</svg>
