<svg width="70" height="70" viewBox="0 0 70 70" fill="none" xmlns="http://www.w3.org/2000/svg">
<circle cx="35" cy="35" r="35" fill="#ABE4FF"/>
<g clip-path="url(#clip0_20_106)">
<path d="M52.75 44.862C52.1977 44.862 51.75 45.3097 51.75 45.862V48.75C51.75 49.3023 51.3023 49.75 50.75 49.75H20.25C19.6977 49.75 19.25 49.3023 19.25 48.75V45.862C19.25 45.3097 18.8023 44.862 18.25 44.862H17C16.4477 44.862 16 45.3097 16 45.862V49.75V52C16 52.5523 16.4477 53 17 53H19.25H51.75H54C54.5523 53 55 52.5523 55 52V49.75V45.862C55 45.3097 54.5523 44.862 54 44.862H52.75Z" fill="#0C5599"/>
<path d="M40.5625 34.3125C40.0102 34.3125 39.5625 33.8648 39.5625 33.3125V15C39.5625 14.4477 39.1148 14 38.5625 14H37.9375H33.0625H32.4375C31.8852 14 31.4375 14.4477 31.4375 15V33.3125C31.4375 33.8648 30.9898 34.3125 30.4375 34.3125H28.5684C27.7502 34.3125 27.2783 35.2415 27.7608 35.9023L34.6924 45.3941C35.0918 45.9411 35.9081 45.9411 36.3076 45.3941L43.2392 35.9023C43.7217 35.2415 43.2498 34.3125 42.4316 34.3125H40.5625Z" fill="#0C5599"/>
</g>
<defs>
<clipPath id="clip0_20_106">
<rect width="39" height="39" fill="white" transform="translate(16 14)"/>
</clipPath>
</defs>
</svg>
