<svg width="70" height="70" viewBox="0 0 70 70" fill="none" xmlns="http://www.w3.org/2000/svg">
<circle cx="35" cy="35" r="35" fill="#ABE4FF"/>
<path d="M29.6459 35.9583C29.6459 35.1042 30.3542 34.3958 31.2084 34.3958H33.8125V31.7917C33.8125 30.9375 34.5209 30.2292 35.375 30.2292C36.2292 30.2292 36.9375 30.9375 36.9375 31.7917V34.3958H39.5417C40.3959 34.3958 41.1042 35.1042 41.1042 35.9583C41.1042 36.8125 40.3959 37.5208 39.5417 37.5208H36.9375V40.125C36.9375 40.9792 36.2292 41.6875 35.375 41.6875C34.5209 41.6875 33.8125 40.9792 33.8125 40.125V37.5208H31.2084C30.3542 37.5208 29.6459 36.8125 29.6459 35.9583ZM31.4375 51.0625C31.4375 52.7917 30.0417 54.1875 28.3125 54.1875C26.5834 54.1875 25.1875 52.7917 25.1875 51.0625C25.1875 49.3333 26.5834 47.9375 28.3125 47.9375C30.0417 47.9375 31.4375 49.3333 31.4375 51.0625ZM44.9792 51.0625C44.9792 52.7917 43.5834 54.1875 41.8542 54.1875C40.125 54.1875 38.7292 52.7917 38.7292 51.0625C38.7292 49.3333 40.125 47.9375 41.8542 47.9375C43.5834 47.9375 44.9792 49.3333 44.9792 51.0625ZM51.1875 28L47.0209 44.6667C46.8542 45.3542 46.2292 45.8542 45.5 45.8542H24.6667C23.9167 45.8542 23.2709 45.3125 23.125 44.5625L19.1875 22.9375H16.3334C15.4792 22.9375 14.7709 22.2292 14.7709 21.375C14.7709 20.5208 15.4792 19.8125 16.3334 19.8125H20.5C21.25 19.8125 21.8959 20.3542 22.0417 21.1042L22.9375 26.0625H49.6667C50.1459 26.0625 50.6042 26.2917 50.8959 26.6667C51.1875 27.0417 51.2917 27.5417 51.1875 28ZM47.6667 29.1875H23.5L25.9584 42.7292H44.2709L47.6459 29.1875H47.6667Z" fill="#0C5599"/>
</svg>
