<?xml version="1.0" encoding="UTF-8"?> <svg xmlns="http://www.w3.org/2000/svg" viewBox="0 0 104 73"> <path d="M78.62 29.857v-.896c3.222-.239 13.916 3.822 19.95 9.278A46.708 46.708 0 0 0 96 32.604c-5.653-2.668-12.483-4.519-17.38-3.723v-.976c3.025-.217 10.532 1.036 17.104 4.201a43.489 43.489 0 0 0-2.651-4.201c-4.676-1.194-9.874-1.731-14.452-.617v-1.055c3.142-.478 8.76-.06 14.176 1.274-3.843-5.317-8.701-9.616-14.176-12.901v-8.84c2.269.537 4 1.056 4.56 1.195 1.891-1.015 7.105-3.127 9.019-4.142.814-.438 1.316-.298 1.135.358l-3.823 8.542c-.459 1.194.994 4.559 1.312 7.266a47.98 47.98 0 0 1 5.935 9.696c2.35.817 4.521 1.813 6.272 3.027-1.653-.896-3.746-1.832-6.114-2.648a45.71 45.71 0 0 1 1.83 4.679c1.055.657 2.073 1.354 2.987 2.131a31.65 31.65 0 0 0-2.866-1.792 53.113 53.113 0 0 1 1.554 6.052c.956 1.134 1.65 2.291 2.049 3.484-.337-1.015-1.035-2.091-1.991-3.167.499 2.749.737 5.376.718 7.727a51.1 51.1 0 0 0-2.451-9.479c-5.515-4.995-15.37-9.633-20.127-8.838zm0-8.62c.179-.06.378-.14.557-.219 1.871-.856 2.987-2.867 2.865-3.265-.118-.358-1.728-.896-3.421-.379v.379c.296.2.594.636.795 1.194.279.896.158 1.791-.257 1.991-.182.08-.359.04-.538-.079v.378h-.001zm0-.996c.201.458.417.737.517.697.179-.079.077-.876-.221-1.771a5.319 5.319 0 0 0-.296-.796v1.87zm0-14.474v8.84a53.84 53.84 0 0 0-6.929-3.506V4.512c2.446.258 4.919.757 6.929 1.255zm0 11.606v.379c-.18-.12-.359-.16-.536-.08-.422.2-.541 1.094-.262 1.991.201.558.5.995.798 1.195v.378c-1.693.516-3.307-.021-3.428-.378-.118-.399.997-2.41 2.869-3.266.181-.079.378-.158.559-.219zm0 .997c-.199-.458-.419-.738-.517-.698-.18.08-.08.877.22 1.773.078.298.198.577.298.796V18.37h-.001zm0 7.864v1.055c-.635.14-1.236.338-1.852.537-.26-.179-.637-.08-.375-.816.394-.357 1.173-.617 2.227-.776zm0 1.672v.976c-.359.06-.718.14-1.054.238-.223-.258-.618-.258-.201-.914.22-.161.635-.26 1.255-.3zm0 1.056c-.199.021-.359.04-.499.08-.555.557-.177.637-.019.916.158-.04.337-.08.517-.1v-.896h.001zm-6.929.995v-4.5c.077.061.157.14.257.24.677.756 1.913.278 3.006.278.219.517.263.498.022 1.075-3.145-.061-2.032 2.17-2.589 2.21-.22.398-.461.618-.696.697zm0-25.445v6.589a64.1 64.1 0 0 0-3.821-1.432V3.597c.793.258 1.57.497 2.325.775.48.04.997.08 1.496.14zm0 20.945v4.5c-.359.1-.696-.14-1.036-.697-.899-.04.757-2.23-2.23-2.21-.199-.577-.32-.359 0-1.075.836 0 1.731.318 2.25-.278.337-.378.676-.458 1.016-.24zm-3.821-4.161v-1.99c.533.697.812 1.353.734 1.553-.041.139-.319.298-.734.437zm-2.672 5.953c.339.1.676.219 1.016.338.279-.199.657-.099.4-.835-.298-.259-.778-.459-1.416-.618v1.115zM67.87 3.597v6.072a99.244 99.244 0 0 0-2.672-.817V2.859c.915.239 1.794.478 2.672.738zm0 15.709v1.99a4.901 4.901 0 0 1-2.672-.059v-.378c.301-.2.599-.637.778-1.195.299-.896.177-1.791-.257-1.991-.161-.08-.34-.04-.521.08v-.379c.18.061.359.14.558.219.897.398 1.613 1.075 2.114 1.713zm-2.672 10.692v-.916c.063.02.121.02.18.06.517.577.121.636-.039.916-.063-.02-.099-.041-.141-.06zm0-1.195v-1.036c.18.06.339.12.419.199.441.657.019.637-.179.895l-.24-.058zm0-8.562c.1-.219.202-.498.301-.796.298-.896.397-1.693.219-1.773-.119-.04-.318.239-.521.698v1.871h.001zm-11.645 6.65c3.942-.657 8.042-.696 11.645.358v-1.115c-2.35-.556-6.868-.437-11.645.418v.339zM65.198 2.859v5.993a60.393 60.393 0 0 0-11.645-2.03V1.148c4.219.238 8.101.836 11.645 1.711zm0 14.514v.379c-.317.2-.615.636-.795 1.194-.279.896-.16 1.791.26 1.991.158.08.357.04.535-.079v.378a7.007 7.007 0 0 1-.555-.219c-1.85-.856-2.968-2.867-2.849-3.265.119-.358 1.713-.896 3.404-.379zm0 .997a8.672 8.672 0 0 0-.317.796c-.279.895-.378 1.693-.198 1.771.097.04.296-.238.514-.697v-1.87h.001zm0 9.397v1.036c-3.207-.778-7.426-.22-11.645 1.035v-.418c5.276-1.593 10.034-2.071 11.645-1.653zm0 1.314c-1.671-.477-6.548.577-11.645 2.608v.259c4.559-1.831 9.099-2.788 11.645-1.95v-.917zM39.993 31.45c3.245-1.772 8.263-3.704 13.56-4.559v-.339c-4.879.878-10.075 2.49-13.56 4.898zm13.56-30.302v5.675c-1.455-.1-2.927-.16-4.381-.16a57.23 57.23 0 0 0-10.294.916V1.844a64.999 64.999 0 0 1 10.593-.797c1.392 0 2.747.04 4.082.101zm0 28.272v.417c-4.54 1.354-9.059 3.545-12.266 5.775 3.445-2.868 8.004-4.897 12.266-6.192zm0 2.269c-5.775 2.33-11.769 5.953-13.52 10.175 1.513-3.505 7.526-7.486 13.52-9.916v-.259zM38.878 1.844v5.734c-5.175.915-10.173 2.548-14.733 4.898V6.563c4.181-2.17 9.039-3.823 14.733-4.719zM24.145 6.563v5.914C11.541 18.968 2.164 30.852.97 48.176.97 36.11 5.706 16.18 24.145 6.563zM6.374 58.678l2.343 8.279 2.342-8.279h5.254v13.276h-3.908v-4.056c0-1.494.111-2.931.276-4.463h-.037l-2.415 8.52H7.204l-2.415-8.52h-.038c.13 1.162.277 2.951.277 4.02v4.5H1.119V58.678h5.255zm20.614 0l4.756 13.276h-4.333l-.517-1.753h-4.333l-.497 1.753h-4.259l4.756-13.276h4.427zm-.848 8.758l-1.401-4.756-1.346 4.756h2.747zm11.45 4.518h-4.351V58.678h6.398c3.816 0 5.661 1.751 5.661 4.481 0 2.857-1.697 4.665-5.514 4.665H37.59v4.13zm0-7.228h1.806c1.015 0 1.752-.407 1.752-1.549 0-1.236-1.4-1.402-2.323-1.402H37.59v2.951zm14.068-1.754l3.815-4.294h5.11l-4.85 4.996 5.366 8.28h-5.218l-3.19-5.292-1.033 1.087v4.205h-4.351V58.678h4.351v4.294zm10.915-4.294h6.344c2.985 0 5.364.702 5.364 3.339 0 1.363-.886 2.36-1.734 2.893 1.439.367 2.214 1.604 2.214 3.043 0 2.969-2.267 4.002-5.715 4.002h-6.473V58.678zm4.351 5.31h1.808c.866 0 1.493-.387 1.493-1.162 0-1.033-.848-1.051-1.77-1.051h-1.53v2.213h-.001zm0 4.869h1.897c1.072 0 1.883-.221 1.883-1.218 0-1.162-1.015-1.236-2.397-1.236h-1.383v2.454zm20.781-10.179v3.097h-6.473v1.899h5.477v3.099h-5.477v2.084h6.731v3.097H76.881V58.678h10.824zm9.919 13.276h-4.353V61.775h-3.906v-3.097h12.168v3.097h-3.909v10.179zm3.815-18.938H1.137v-2.874h100.302v2.874zm0 3.753H1.137v-2.874h100.302v2.874z" fill-rule="evenodd" clip-rule="evenodd" fill="#047BE1"></path> </svg> 