<svg class="t-sociallinks__svg" width="30px" height="30px" viewBox="0 0 100 100" fill="none" xmlns="http://www.w3.org/2000/svg"> <g clip-path="url(#a)"> <path fill-rule="evenodd" clip-rule="evenodd" d="M50 100c27.6142 0 50-22.3858 50-50S77.6142 0 50 0 0 22.3858 0 50s22.3858 50 50 50ZM32.3668 30.3616c1.529-1.5266 2.313-2.1741 2.7866-2.3015.5616-.1511 1.0518-.0196 1.5634.4196.4329.3715 1.527 1.4916 2.2759 2.3299 2.2004 2.4633 4.882 5.8263 5.2576 6.5935.1136.2322.1247.2979.1055.6292-.0354.6107-.1598.802-.9765 1.5021-1.3026 1.1165-3.299 3.2046-3.9969 4.1805-.4567.6386-.4698 1.0387-.0576 1.7681.3502.6197 2.0532 2.862 3.2535 4.2837 2.0092 2.38 4.3376 4.6029 6.599 6.3002 1.6806 1.2614 4.0441 2.7152 5.6262 3.4606 1.1308.5328 1.4843.5028 2.2087-.1874.6947-.6619 1.5124-1.7299 2.8824-3.7642.4462-.6627.8793-1.2623.9624-1.3325.2534-.2141.5397-.3152.9571-.3379.2672-.0145.4467.0007.5916.05.2786.0949 1.005.549 3.9543 2.4721 1.3685.8924 2.8854 1.8756 3.3709 2.1849 2.7509 1.7526 3.0562 1.988 3.1982 2.4656.1894.6376.0314 1.0473-.8661 2.2452-1.1143 1.4874-2.9896 3.4964-4.389 4.7019-1.1352.978-2.5943 1.9613-4.0331 2.7178l-.6221.3271-.6298-.0005c-1.8358-.0011-3.567-.3672-6.2166-1.3144-6.2054-2.2186-11.7074-5.4657-16.5254-9.7527-.9039-.8044-3.0041-2.9209-3.7864-3.8159-2.6069-2.9827-4.5701-5.8918-6.2658-9.2845-1.2218-2.4446-2.3446-5.2818-2.5339-6.4026-.2774-1.6423.3983-3.7909 1.9148-6.0887.9075-1.3749 1.9016-2.562 3.3911-4.0492Z" fill="#000000"></path> </g> <defs> <clippath id="a"> <path fill="#fff" d="M0 0h100v100H0z"></path> </clippath> </defs></svg>