<svg width="70" height="70" viewBox="0 0 70 70" fill="none" xmlns="http://www.w3.org/2000/svg">
<circle cx="35" cy="35" r="35" fill="#ABE4FF"/>
<path d="M52.6188 24.5887H17.1813C16.868 24.5887 16.5675 24.7131 16.346 24.9346C16.1245 25.1562 16 25.4566 16 25.7699V44.6699C16 44.9832 16.1245 45.2837 16.346 45.5052C16.5675 45.7267 16.868 45.8512 17.1813 45.8512H52.6188C52.932 45.8512 53.2325 45.7267 53.454 45.5052C53.6756 45.2837 53.8 44.9832 53.8 44.6699V25.7699C53.8 25.4566 53.6756 25.1562 53.454 24.9346C53.2325 24.7131 52.932 24.5887 52.6188 24.5887ZM45.6376 43.4887H24.1624C23.9162 42.0399 23.2258 40.7035 22.1867 39.6644C21.1476 38.6253 19.8112 37.9349 18.3625 37.6887V32.7511C19.8112 32.5049 21.1476 31.8145 22.1867 30.7754C23.2258 29.7363 23.9162 28.3999 24.1624 26.9512H45.6376C45.8838 28.3999 46.5742 29.7363 47.6133 30.7754C48.6524 31.8145 49.9888 32.5049 51.4375 32.7511V37.6887C49.9888 37.9349 48.6524 38.6253 47.6133 39.6644C46.5742 40.7035 45.8838 42.0399 45.6376 43.4887ZM51.4375 30.3295C50.625 30.1174 49.8836 29.6926 49.2898 29.0988C48.6961 28.505 48.2712 27.7637 48.0591 26.9512H51.4375V30.3295ZM21.7409 26.9512C21.5288 27.7637 21.104 28.505 20.5102 29.0988C19.9164 29.6926 19.175 30.1174 18.3625 30.3295V26.9512H21.7409ZM18.3625 40.1103C19.175 40.3224 19.9164 40.7472 20.5102 41.341C21.104 41.9348 21.5288 42.6761 21.7409 43.4887H18.3625V40.1103ZM48.0591 43.4887C48.2712 42.6761 48.6961 41.9348 49.2898 41.341C49.8836 40.7472 50.625 40.3224 51.4375 40.1103V43.4887H48.0591Z" fill="#0C5599"/>
<path d="M24.8714 17.1586C24.7368 17.0808 24.5883 17.0304 24.4342 17.0101C24.2802 16.9898 24.1237 17.0001 23.9736 17.0405C23.671 17.1191 23.4118 17.3145 23.253 17.5838L20.8905 21.6355C20.7339 21.9081 20.6919 22.2317 20.7739 22.5352C20.8559 22.8387 21.055 23.0972 21.3276 23.2538C21.6002 23.4105 21.9238 23.4524 22.2273 23.3705C22.5308 23.2885 22.7893 23.0893 22.9459 22.8168L24.7178 19.7928L30.7067 23.2538C30.9793 23.4105 31.3029 23.4524 31.6064 23.3705C31.9099 23.2885 32.1684 23.0893 32.325 22.8168C32.4817 22.5442 32.5236 22.2206 32.4417 21.9171C32.3597 21.6136 32.1605 21.3551 31.888 21.1985L24.8714 17.1586Z" fill="#0C5599"/>
<path d="M44.929 53.2812C45.1079 53.3874 45.3116 53.4444 45.5196 53.4466C45.6213 53.4638 45.7251 53.4638 45.8268 53.4466C46.1294 53.368 46.3885 53.1726 46.5473 52.9032L48.9098 48.8515C49.0665 48.579 49.1084 48.2554 49.0265 47.9519C48.9445 47.6484 48.7453 47.3899 48.4728 47.2332C48.2002 47.0766 47.8766 47.0346 47.5731 47.1166C47.2696 47.1986 47.0111 47.3977 46.8544 47.6703L45.1062 50.6943L39.1173 47.2332C38.8447 47.0766 38.5211 47.0346 38.2176 47.1166C37.9141 47.1986 37.6556 47.3977 37.4989 47.6703C37.3423 47.9428 37.3003 48.2665 37.3823 48.57C37.4643 48.8735 37.6634 49.132 37.936 49.2886L44.929 53.2812Z" fill="#0C5599"/>
<path d="M34.9 28.1324C33.4982 28.1324 32.1279 28.5481 30.9624 29.3269C29.7969 30.1056 28.8884 31.2126 28.352 32.5076C27.8156 33.8027 27.6752 35.2278 27.9487 36.6026C28.2222 37.9774 28.8972 39.2403 29.8884 40.2315C30.8796 41.2227 32.1425 41.8977 33.5173 42.1712C34.8921 42.4447 36.3172 42.3043 37.6123 41.7679C38.9073 41.2315 40.0143 40.323 40.793 39.1575C41.5718 37.992 41.9875 36.6217 41.9875 35.2199C41.9875 33.3402 41.2408 31.5374 39.9116 30.2083C38.5825 28.8791 36.7797 28.1324 34.9 28.1324ZM34.9 39.9449C33.9655 39.9449 33.052 39.6678 32.2749 39.1486C31.4979 38.6294 30.8923 37.8915 30.5347 37.0281C30.177 36.1647 30.0835 35.2147 30.2658 34.2981C30.4481 33.3815 30.8981 32.5396 31.5589 31.8788C32.2197 31.218 33.0616 30.768 33.9782 30.5857C34.8948 30.4034 35.8448 30.4969 36.7082 30.8546C37.5716 31.2122 38.3095 31.8178 38.8287 32.5948C39.3479 33.3719 39.625 34.2854 39.625 35.2199C39.625 36.4731 39.1272 37.6749 38.2411 38.561C37.355 39.4471 36.1532 39.9449 34.9 39.9449Z" fill="#0C5599"/>
</svg>
