<svg width="70" height="70" viewBox="0 0 70 70" fill="none" xmlns="http://www.w3.org/2000/svg">
<circle cx="35" cy="35" r="35" fill="#ABE4FF"/>
<path d="M20.4167 35C20.4203 32.1321 21.2694 29.329 22.8577 26.9412C24.4461 24.5534 26.7033 22.6869 29.3469 21.5752C31.9905 20.4635 34.9032 20.156 37.7207 20.691C40.5382 21.226 43.1354 22.5799 45.1875 24.5833H39.1667C38.6141 24.5833 38.0842 24.8028 37.6935 25.1935C37.3028 25.5842 37.0833 26.1141 37.0833 26.6667C37.0833 27.2192 37.3028 27.7491 37.6935 28.1398C38.0842 28.5305 38.6141 28.75 39.1667 28.75H49.75C50.2732 28.708 50.7612 28.4701 51.1165 28.0839C51.4719 27.6976 51.6683 27.1915 51.6667 26.6667V16.25C51.6667 15.6975 51.4472 15.1676 51.0565 14.7769C50.6658 14.3862 50.1359 14.1667 49.5833 14.1667C49.0308 14.1667 48.5009 14.3862 48.1102 14.7769C47.7195 15.1676 47.5 15.6975 47.5 16.25V21.0833C44.8059 18.6736 41.4727 17.094 37.9016 16.5346C34.3306 15.9752 30.674 16.4599 27.3721 17.9304C24.0702 19.4008 21.2636 21.7944 19.2904 24.8228C17.3171 27.8512 16.2613 31.3854 16.25 35C16.25 35.5525 16.4695 36.0824 16.8602 36.4731C17.2509 36.8638 17.7808 37.0833 18.3333 37.0833C18.8859 37.0833 19.4158 36.8638 19.8065 36.4731C20.1972 36.0824 20.4167 35.5525 20.4167 35Z" fill="#0C5599"/>
<path d="M51.6666 32.9167C51.1141 32.9167 50.5842 33.1362 50.1935 33.5269C49.8028 33.9176 49.5833 34.4475 49.5833 35C49.5797 37.8678 48.7306 40.671 47.1422 43.0588C45.5538 45.4466 43.2967 47.3131 40.653 48.4248C38.0094 49.5365 35.0967 49.844 32.2792 49.309C29.4617 48.774 26.8645 47.4201 24.8124 45.4167H30.8333C31.3858 45.4167 31.9157 45.1972 32.3064 44.8065C32.6971 44.4158 32.9166 43.8859 32.9166 43.3333C32.9166 42.7808 32.6971 42.2509 32.3064 41.8602C31.9157 41.4695 31.3858 41.25 30.8333 41.25H20.2499C19.7268 41.292 19.2387 41.5299 18.8834 41.9161C18.5281 42.3024 18.3316 42.8085 18.3333 43.3333V53.75C18.3333 54.3025 18.5528 54.8324 18.9435 55.2231C19.3342 55.6138 19.8641 55.8333 20.4166 55.8333C20.9691 55.8333 21.499 55.6138 21.8897 55.2231C22.2804 54.8324 22.4999 54.3025 22.4999 53.75V48.9167C25.1941 51.3264 28.5273 52.906 32.0983 53.4654C35.6693 54.0248 39.3259 53.5401 42.6278 52.0696C45.9298 50.5992 48.7363 48.2056 50.7095 45.1772C52.6828 42.1488 53.7386 38.6145 53.7499 35C53.7499 34.4475 53.5304 33.9176 53.1397 33.5269C52.749 33.1362 52.2191 32.9167 51.6666 32.9167Z" fill="#0C5599"/>
</svg>
