<?xml version="1.0" encoding="UTF-8"?> <svg xmlns="http://www.w3.org/2000/svg" xmlns:xlink="http://www.w3.org/1999/xlink" width="275px" height="104px" viewBox="0 0 275 104"> <g stroke="none" fill-rule="evenodd"> <path d="M38.2684051,8.14549153 C38.2684051,8.14549153 44.1739421,15.416678 49.6222251,17.6888136 C55.0731511,19.9574237 56.2845659,19.5035254 56.2845659,19.5035254 L61.1302251,23.8962034 C61.1302251,23.8962034 62.5689453,23.6688136 62.4174084,22.9875254 C62.2658714,22.3053559 61.8870289,22.0030508 61.8870289,22.0030508 C61.8870289,22.0030508 64.4613955,22.4569492 64.1592026,21.2450847 C63.8561286,20.0332203 60.7513826,19.8816271 58.934701,17.6094915 C57.1171383,15.3408814 56.2087974,6.63044068 51.5146752,4.50989831 C46.8205531,2.38935593 42.5836849,3.14644068 42.5836849,3.14644068 C27.3727203,-3.32976271 6.77162058,3.33240678 1.92948553,19.0725424 C-2.30385852,32.8269831 7.8041865,50.0301695 34.4068553,57.3674576 C38.7979035,58.579322 38.9494405,58.8816271 38.9494405,58.8816271 L38.9494405,52.220339 C38.9494405,52.220339 15.9360836,46.4642034 9.27374277,34.0458983 C2.6105209,21.6240678 10.1820836,4.20671186 38.2684051,8.14549153" fill="#FF520A"></path> <path d="M45.509582,45.1007458 L61.4535627,45.1007458 C62.3971447,45.1007458 63.1706881,45.8754576 63.1706881,46.8185085 L63.1706881,64.6386441 L82.8017749,64.6386441 C83.1215884,64.6386441 83.4246624,64.727661 83.6828039,64.8827797 L75.4328489,84.0249492 L63.1706881,84.0249492 L63.1706881,101.844203 C63.1706881,102.788136 62.3971447,103.562847 61.4535627,103.562847 L45.509582,103.562847 C44.566,103.562847 43.7915756,102.788136 43.7915756,101.844203 L43.7915756,84.0249492 L24.1613698,84.0249492 C23.2186688,84.0249492 22.4442444,83.2502373 22.4442444,82.3063051 L22.4442444,66.3564068 C22.4442444,65.4133559 23.2186688,64.6386441 24.1613698,64.6386441 L43.7915756,64.6386441 L43.7915756,46.8185085 C43.7915756,45.8754576 44.566,45.1007458 45.509582,45.1007458" fill="#FF520A"></path> <path d="M14.8726817,26.4715254 C14.8726817,26.4715254 18.2038521,40.7071864 38.7943794,44.7975593 L41.004,44.7975593 L41.004,42.2566102 C41.004,41.1549153 41.9986817,40.2532881 43.2136206,40.2532881 L63.7495241,40.2532881 C64.964463,40.2532881 65.9582637,41.1549153 65.9582637,42.2566102 L65.9582637,44.7975593 L69.6030804,44.7975593 C90.1936077,40.7071864 93.5256592,26.4715254 93.5256592,26.4715254 L14.8726817,26.4715254 Z" fill="#FF520A"></path> <path d="M68.1784566,49.5859661 C72.5659807,52.547322 76.1218135,56.6438644 78.4239421,61.4569492 L68.1784566,61.4569492 L68.1784566,49.5859661 Z" fill="#FF520A"></path> <path d="M22.5922572,93.1892881 C22.5922572,93.1892881 27.3621479,97.200339 31.9805016,99.5482712 C36.5988553,101.896203 38.9423923,101.74461 38.9423923,101.74461 L38.9423923,94.7801356 C38.9423923,94.7801356 29.860746,93.7921356 27.2106109,92.9583729 C24.5604759,92.1290169 21.9103408,91.9774237 22.5922572,93.1892881" fill="#FF520A"></path> <polygon fill="#FF520A" points="73.1923923 89.2231864 68.1784566 89.2231864 68.1784566 100.852678"></polygon> <path d="M122.062186,24.1544407 C122.633974,22.1890169 124.426868,20.7841356 126.56072,20.7497627 C128.691048,20.7497627 130.204656,22.3882034 130.738559,24.1544407 L122.062186,24.1544407 Z M123.304437,32.1624407 C124.292071,32.6233898 125.335209,32.8613559 126.405659,32.8613559 C129.4549,32.8613559 132.231904,30.9091525 133.312926,28.003322 C133.364026,27.8693559 133.343762,27.7177627 133.264469,27.6005424 C133.181653,27.4797966 133.044212,27.4110508 132.899723,27.4110508 L131.894469,27.4110508 C131.794913,27.4110508 131.712096,27.404 131.636328,27.404 L131.450431,27.3978305 C131.044277,27.3978305 130.786135,27.5494237 130.528875,27.9345763 C129.623177,29.2874576 128.780032,29.9555254 127.617074,30.2410847 C127.255852,30.3345085 126.884058,30.3794576 126.515788,30.3794576 C124.313215,30.3794576 122.419884,28.7709831 122.01373,26.6398644 L133.212489,26.6398644 C133.453891,26.6398644 133.649479,26.4442034 133.653003,26.2027119 C133.670624,23.6520678 132.661846,20.4157288 129.781762,18.9835254 C128.810868,18.5049492 127.702534,18.2502373 126.57746,18.2502373 C124.326431,18.2502373 122.19346,19.2382373 120.871916,20.8978305 C119.460508,22.6702373 118.933653,25.0736949 119.456984,27.3290847 C119.962695,29.4875254 121.363531,31.2467119 123.304437,32.1624407 Z" fill="#00615D"></path> <path d="M178.482399,27.7970847 C177.684186,29.3632542 175.987325,30.3759322 174.160071,30.3759322 C173.805897,30.3759322 173.450842,30.3380339 173.103717,30.2622373 C170.997177,29.7968814 169.524096,27.9002034 169.524096,25.648339 C169.524096,23.6652881 170.608643,21.9025763 172.291408,21.1560678 C172.88346,20.8907797 173.547756,20.7532881 174.214695,20.7532881 C175.51245,20.7532881 176.758225,21.2627119 177.628682,22.1537627 C179.050662,23.6000678 179.40836,25.975322 178.482399,27.7970847 M177.65335,19.0178983 C176.28335,18.3568814 174.641994,18.1189153 173.107241,18.3498305 C172.28436,18.4776271 171.516984,18.7385085 170.8289,19.1315932 C170.32319,19.420678 169.951395,19.8128814 169.589293,20.1918644 C169.569029,20.215661 169.545241,20.240339 169.524096,20.2641356 L169.527621,19.4277288 C169.534669,19.1897627 169.541717,18.9623729 169.359344,18.7764068 C169.166399,18.5772203 168.915305,18.5772203 168.570823,18.5772203 C168.525891,18.5772203 168.450122,18.5701695 168.357614,18.5631186 C167.93472,18.5322712 167.348836,18.4256271 167.070431,18.7631864 C166.908322,18.9562034 166.93299,19.2170847 166.96735,19.5722712 L166.96735,35.8597288 C166.96735,35.8941017 166.960302,35.9461017 166.953254,36.0077966 C166.918894,36.3559322 166.905678,36.6176949 167.029023,36.8239322 C167.084527,36.92 167.263376,37.2161356 168.529415,37.2161356 C169.166399,37.2161356 169.383132,37.1130169 169.517048,36.9517288 C169.72409,36.7067119 169.699421,36.2933559 169.637749,35.6429153 C169.627177,35.5397966 169.617486,35.4498983 169.617486,35.4023051 L169.617486,30.8166102 C169.875627,31.1471186 170.146984,31.4837966 170.508206,31.7455593 C171.520508,32.475322 172.793595,32.8648814 174.266675,32.8648814 C177.474502,32.8340339 180.203048,30.9849492 181.21535,28.1549153 C182.468174,24.6673898 180.870868,20.567322 177.65335,19.0178983" fill="#00615D"></path> <path d="M209.143087,26.740339 C208.65764,28.8467797 206.73083,30.3794576 204.562617,30.3794576 C202.452553,30.3794576 200.67728,29.0292203 200.036772,26.9395254 C199.397145,24.8498305 200.116064,22.736339 201.864026,21.555322 C202.663119,21.0176949 203.523003,20.7462373 204.42782,20.7462373 C205.853325,20.7462373 207.263852,21.448678 208.20391,22.6296949 C209.146611,23.8168814 209.480521,25.2764068 209.143087,26.740339 M211.744765,18.8627797 C211.542129,18.5631186 210.805588,18.5014237 210.220585,18.5014237 C209.810907,18.5014237 209.583601,18.5534237 209.432064,18.680339 C209.197711,18.8804068 209.139563,19.2311864 209.177447,20.0296949 C209.09463,19.9336271 209.00917,19.8437288 208.912257,19.7617627 C208.462051,19.3651525 207.942244,19.0416949 207.373981,18.8010847 C206.596032,18.4670508 205.69474,18.2846102 204.76173,18.2669831 L204.610193,18.2669831 C202.087807,18.2669831 199.872019,19.3246102 198.525807,21.1657627 C196.963743,23.3039322 196.680932,26.0378983 197.776051,28.4748475 C198.877338,30.94 201.117794,32.5652203 203.767048,32.8234576 C204.02519,32.8507797 204.283331,32.8613559 204.544997,32.8613559 C205.711479,32.8613559 206.819814,32.5925424 207.742251,32.0795932 C208.27263,31.7869831 208.76072,31.4053559 209.201235,30.9470508 C209.218855,30.9329492 209.232952,30.9162034 209.246167,30.8985763 C209.242643,30.9232542 209.242643,30.9435254 209.239119,30.964678 C209.197711,31.3842034 209.150135,31.8592542 209.314887,32.1765424 C209.449685,32.4374237 209.648797,32.5652203 209.928084,32.5652203 L210.054952,32.5581695 C210.127196,32.5546441 210.168605,32.5475932 210.410006,32.5652203 C210.843473,32.6031186 211.421428,32.6859661 211.690141,32.4277288 C211.88573,32.2382373 211.882206,31.9588475 211.831106,31.3771525 L211.820534,20.4465763 C211.820534,20.3848814 211.83463,20.2844068 211.844322,20.1645424 C211.90335,19.5546441 211.930662,19.1315932 211.744765,18.8627797" fill="#00615D"></path> <path d="M195.239569,19.1210169 C195.236045,18.9694237 195.184064,18.6221695 194.719762,18.5974915 C194.681878,18.5939661 194.620206,18.5939661 194.530341,18.5807458 C194.37528,18.5595932 194.037846,18.5287458 193.721556,18.5287458 C193.136553,18.5287458 192.833479,18.6256949 192.675775,18.8592542 C192.468733,19.1730169 192.503093,19.695661 192.571814,20.4051525 C192.589434,20.5637966 192.603531,20.6977627 192.603531,20.7841356 L192.603531,24.1544407 L187.171987,24.1544407 C187.099743,24.1544407 186.965826,24.1650169 186.810765,24.1817627 C186.604605,24.1993898 186.315627,24.2231864 186.136778,24.2231864 C186.136778,24.1271186 186.146469,24.0134237 186.149994,23.9517288 C186.157042,23.8583051 186.160566,23.7789831 186.160566,23.724339 L186.160566,21.3728814 C186.160566,21.176339 186.178186,20.9630508 186.191402,20.7427119 C186.225762,20.2438644 186.263646,19.6753898 186.160566,19.2144407 C186.167614,19.1042712 186.187878,18.8733559 186.005505,18.6979661 C185.7271,18.432678 185.255749,18.5322712 184.911267,18.5631186 C184.839023,18.5701695 184.784399,18.5772203 184.752682,18.5772203 C184.663698,18.5772203 184.580881,18.5701695 184.508637,18.5631186 C183.885749,18.5049492 183.651395,18.7667119 183.544791,19.0108475 C183.414399,19.3105085 183.455807,19.7238644 183.490167,20.0887458 C183.50074,20.2024407 183.510431,20.3090847 183.510431,20.3910508 L183.510431,31.4635254 L183.503383,31.5595932 C183.465498,31.9658983 183.452283,32.227661 183.631132,32.4136271 C183.755357,32.5449492 183.861961,32.6136949 184.790566,32.6136949 C185.806392,32.6136949 185.891852,32.5343729 186.001981,32.4347797 C186.229286,32.2206102 186.229286,31.8839322 186.174662,31.2158644 C186.167614,31.1294915 186.160566,31.0572203 186.160566,31.019322 C186.160566,30.5336949 186.143826,30.031322 186.122682,29.5289492 C186.084797,28.5506441 186.043389,27.5423729 186.157042,26.6160678 C186.422232,26.5675932 186.84865,26.5852203 187.238064,26.6125424 C187.454797,26.6266441 187.664482,26.6398644 187.857428,26.6398644 L192.499569,26.6398644 C192.565646,26.6398644 192.627318,26.636339 192.685466,26.6336949 C192.706611,26.8707797 192.661678,27.3387797 192.641415,27.5591186 C192.62027,27.7591864 192.603531,27.9345763 192.603531,28.0482712 L192.603531,30.5786441 C192.603531,30.6306441 192.592958,30.7337627 192.582386,30.8571525 C192.503093,31.707661 192.493402,32.1386441 192.719826,32.3827797 C192.813215,32.4858983 192.933916,32.6136949 193.896881,32.6136949 C194.633421,32.6136949 194.784958,32.5378983 194.871299,32.4929492 C195.136489,32.3625085 195.273929,32.2206102 195.256309,31.8592542 C195.256309,31.8213559 195.252785,31.7702373 195.256309,31.6979661 C195.266881,30.8677288 195.263357,30.0383729 195.256309,29.2081356 L195.256309,22.9152542 C195.256309,22.5468475 195.273929,22.1608136 195.290669,21.7721356 C195.332077,20.9392542 195.37701,20.0781695 195.24926,19.2726102 C195.239569,19.200339 195.239569,19.1518644 195.239569,19.1210169" fill="#00615D"></path> <path d="M101.382675,30.0727458 L101.365055,30.5098983 L101.29281,30.0965424 C101.323646,30.083322 101.354482,30.0727458 101.382675,30.0727458 Z M104.114746,30.0656949 L109.108418,17.8368814 L114.098566,30.0656949 L104.114746,30.0656949 Z M99.5889003,35.6429153 C99.6576206,35.7601356 99.7783215,35.8394576 99.913119,35.8597288 C100.160688,35.984 100.655826,35.9628475 101.079601,35.9223051 C101.172109,35.9152542 101.254926,35.904678 101.316598,35.904678 L101.347434,35.464 L101.426727,35.904678 C101.433775,35.904678 101.516592,35.9082034 101.52364,35.9082034 C101.757113,35.9082034 101.94301,35.8218305 102.067235,35.6534915 C102.235511,35.4261017 102.218772,35.0920678 102.170315,34.5755932 C102.159743,34.4927458 102.152695,34.4204746 102.152695,34.3825763 L102.152695,33.1125424 C102.152695,33.0543729 102.146527,32.9574237 102.132431,32.8437288 C102.125383,32.7714576 102.115691,32.6410169 102.108643,32.5308475 C102.190579,32.5308475 102.273395,32.5378983 102.349164,32.5414237 C102.442553,32.5475932 102.520965,32.5511186 102.587042,32.5511186 L115.0351,32.5511186 C115.107344,32.5511186 115.237736,32.5414237 115.399846,32.527322 C115.616579,32.5070508 115.92582,32.4788475 116.111717,32.4823729 C116.122289,32.7132881 116.094977,33.1054915 116.080881,33.2747119 C116.070309,33.4227797 116.060617,33.5461695 116.060617,33.6149153 L116.060617,35.464 C116.060617,35.7046102 116.256206,35.904678 116.501132,35.904678 C116.562804,35.904678 116.689672,35.9152542 116.844733,35.9284746 C117.130186,35.9531525 117.505505,35.984 117.805055,35.984 C118.176849,35.984 118.442039,35.9425763 118.606791,35.7495593 C118.813833,35.5089492 118.813833,35.1158644 118.73454,34.2724068 C118.723968,34.1490169 118.713395,34.0494237 118.713395,33.9938983 L118.713395,31.380678 C118.713395,31.3427797 118.720444,31.2881356 118.723968,31.2229153 C118.758328,30.8783051 118.775949,30.6200678 118.634984,30.3724068 C118.590051,30.2930847 118.493138,30.0656949 118.128392,30.083322 L118.111653,30.524 L118.03236,30.0727458 C117.853511,30.0418983 117.626206,30.0586441 117.385685,30.083322 C117.272032,30.0930169 117.158379,30.1071186 117.051775,30.1071186 C116.983055,30.1071186 116.94517,30.1000678 116.938122,30.1035932 C116.89319,30.0242712 116.827994,29.8145085 116.797158,29.7113898 C116.762797,29.6012203 116.73108,29.5007458 116.703768,29.4284746 L110.711891,14.8103051 C110.702199,14.7865085 110.688103,14.7486102 110.677531,14.703661 C110.585023,14.3978305 110.50573,14.1739661 110.323357,14.0391186 C110.17182,13.9324746 109.948039,13.8910508 109.532193,13.8910508 C109.104894,13.8910508 108.595659,13.936 108.413286,13.960678 L108.241486,13.9809492 C108.045016,13.9950508 107.848547,14.0364746 107.718154,14.3317288 C107.704058,14.3634576 107.687318,14.404 107.649434,14.4701017 C107.263543,15.1275932 106.992186,15.8811525 106.730521,16.6109153 C106.606296,16.9555254 106.485595,17.2930847 106.355203,17.6165424 L102.41436,27.2215593 C102.29454,27.5176949 102.184412,27.844678 102.067235,28.1787119 C101.843453,28.8397288 101.612624,29.5183729 101.282238,30.0110508 L101.244354,30.0692203 L101.079601,30.0656949 C101.041717,30.0656949 100.969473,30.0586441 100.879608,30.0515932 C100.498122,30.0172203 99.9915305,29.9105763 99.6955048,30.1864407 C99.4963923,30.3759322 99.5034405,30.6094915 99.5069646,30.8060339 C99.4408875,31.3392542 99.4620322,31.8865763 99.4822958,32.4171525 C99.4928682,32.668339 99.5034405,32.916 99.5034405,33.1574915 C99.5034405,33.3055593 99.4822958,33.5047458 99.4620322,33.7215593 C99.4065273,34.3041356 99.3448553,34.9651525 99.5307524,35.4331525 C99.5307524,35.5054237 99.5510161,35.5776949 99.5889003,35.6429153 Z" fill="#00615D"></path> <path d="M157.492765,30.8677288 C157.757955,31.5084746 157.757955,31.5084746 157.489241,32.1553898 L155.651415,36.5383729 C155.593267,36.672339 155.606482,36.8309831 155.689299,36.9517288 C155.833788,37.1650169 156.078714,37.140339 156.515704,37.1852881 C156.797633,37.2126102 157.120971,37.2469831 157.400257,37.2469831 C157.77117,37.2469831 158.016096,37.192339 158.194945,37.0680678 C158.391415,36.9376271 158.476875,36.699661 158.579955,36.3762034 C158.594051,36.3250847 158.608148,36.283661 158.617839,36.2554576 L165.914521,19.1897627 C165.972669,19.0557966 165.955048,18.8971525 165.876637,18.7737627 C165.721576,18.539322 165.407929,18.5807458 165.029968,18.5428475 C164.485492,18.4908475 163.921633,18.4705763 163.598296,18.6151186 C163.309318,18.7385085 163.222977,18.8284068 163.102277,19.1139661 L163.057344,19.2170847 C162.720791,19.968 162.403621,20.7321356 162.087331,21.4962712 L159.320019,28.0623729 L157.076039,22.5054237 C156.938598,22.1572881 156.808206,21.7888814 156.676932,21.4204746 C156.402051,20.6360678 156.115717,19.8269831 155.70692,19.1174915 C155.665511,19.0487458 155.647891,19.0037966 155.634675,18.9729492 C155.521023,18.6979661 155.342174,18.6459661 155.156277,18.6115932 L155.017955,18.5877966 C154.660257,18.512 154.151023,18.5216949 153.655884,18.5534237 C153.297305,18.5736949 152.905248,18.5014237 152.722875,18.7737627 C152.640058,18.8936271 152.626842,19.0487458 152.681466,19.1862373 L157.492765,30.8677288 Z" fill="#00615D"></path> <path d="M152.88146,32.3034576 C152.953704,32.1518644 152.932559,31.9729492 152.829479,31.8389831 L148.307158,26.0819661 C148.24901,26.0070508 148.155621,25.9065763 148.049016,25.7999322 C147.942412,25.6862373 147.739775,25.4729492 147.653434,25.3319322 C147.673698,25.3046102 147.698367,25.2702373 147.725678,25.232339 C148.200553,24.5087458 148.778508,23.8063051 149.336199,23.1250169 C149.621653,22.7768814 149.907987,22.4296271 150.179344,22.0788475 L152.35108,19.2867119 C152.454161,19.1553898 152.475305,18.9729492 152.399537,18.8248814 C152.327293,18.6732881 152.172232,18.5772203 152.003955,18.5772203 L151.049801,18.5772203 C150.98108,18.5772203 150.885048,18.5666441 150.778444,18.5560678 C150.386386,18.5155254 149.966135,18.5014237 149.731781,18.6256949 C149.426064,18.7834576 149.195235,19.1518644 148.992598,19.4788475 C148.933569,19.579322 148.875421,19.6718644 148.826965,19.7335593 L145.47465,24.1782373 C145.440289,24.219661 145.378617,24.2884068 145.302849,24.3677288 C145.120476,24.5642712 144.975987,24.7326102 144.85881,24.8877288 L144.85881,19.0178983 C144.85881,18.7737627 144.662341,18.5772203 144.418296,18.5772203 C144.277331,18.5772203 144.12227,18.5666441 143.964566,18.5560678 C143.554887,18.5287458 143.131113,18.5181695 142.828039,18.5877966 C142.769891,18.6010169 142.721434,18.6080678 142.690598,18.6080678 C142.556682,18.6080678 142.415717,18.6697627 142.3329,18.7737627 C142.250084,18.8768814 142.202508,18.9870508 142.22982,19.1139661 C142.139955,19.3792542 142.167267,19.6921356 142.191936,19.9715254 C142.198984,20.0640678 142.208675,20.1539661 142.208675,20.2262373 L142.208675,24.8983051 C142.047447,24.6224407 141.806045,24.3545085 141.582264,24.1094915 C141.469492,23.9896271 141.365531,23.8759322 141.29681,23.7825085 L138.237878,19.7335593 C138.189421,19.6718644 138.133916,19.579322 138.072244,19.4788475 C137.872251,19.1553898 137.64935,18.7869831 137.349801,18.628339 C137.129543,18.5084746 136.730437,18.5181695 136.348071,18.5560678 C136.252039,18.5666441 136.165698,18.5772203 136.104026,18.5772203 L135.060887,18.5772203 C134.892611,18.5772203 134.741074,18.6732881 134.665305,18.8248814 C134.593061,18.9729492 134.609801,19.1553898 134.713762,19.2867119 L139.162958,25.0014237 C139.214939,25.0701695 139.328592,25.2147119 139.383215,25.3046102 C139.348855,25.348678 139.297756,25.4147797 139.245775,25.4729492 C139.184103,25.5487458 139.108334,25.6386441 139.025518,25.7452881 L134.238006,31.8389831 C134.131402,31.9729492 134.114662,32.1518644 134.186907,32.3034576 C134.262675,32.4550508 134.414212,32.5511186 134.582489,32.5511186 L136.808849,32.5511186 C136.943646,32.5511186 137.070514,32.4894237 137.156855,32.3827797 L142.098547,26.1031186 L142.188412,25.9894237 C142.19546,25.9823729 142.202508,25.975322 142.208675,25.9656271 L142.208675,30.0656949 C142.208675,30.1379661 142.19546,30.2789831 142.177839,30.4517288 C142.071235,31.5877966 142.067711,32.1042712 142.322328,32.3827797 C142.457125,32.527322 142.66681,32.6233898 143.268553,32.6233898 C144.569833,32.6233898 144.741633,32.3210847 144.800662,32.2241356 C144.924006,32.007322 144.907267,31.7358644 144.872907,31.3701017 C144.865859,31.3048814 144.85881,31.2467119 144.85881,31.2052881 L144.85881,26.0475932 C144.972463,26.1930169 145.109904,26.3437288 145.279061,26.5226441 C145.347781,26.5957966 145.402405,26.6539661 145.430598,26.688339 L148.926521,31.1330169 C148.995241,31.2229153 149.074534,31.3427797 149.160875,31.4776271 C149.411968,31.8663051 149.693897,32.3105085 150.048952,32.4964746 C150.182868,32.5687458 150.348502,32.6031186 150.572283,32.6031186 C150.722939,32.6031186 150.892096,32.5854915 151.040109,32.5722712 C151.136141,32.5616949 151.218958,32.5511186 151.284154,32.5511186 L152.482354,32.5511186 C152.65063,32.5511186 152.805691,32.4550508 152.88146,32.3034576" fill="#00615D"></path> <path d="M214.164071,32.5511186 L216.198367,32.5511186 C216.339331,32.5511186 216.473248,32.4858983 216.556064,32.368678 L220.912752,26.3128814 C221.009666,26.1789153 221.019357,26 220.947113,25.8554576 C220.871344,25.7073898 220.717164,25.6139661 220.555055,25.6139661 C220.324225,25.6139661 220.090752,25.6210169 219.84935,25.6280678 C219.612354,25.6351186 219.370952,25.6412881 219.130431,25.6412881 C218.666129,25.6412881 218.067029,25.6174915 217.543698,25.4456271 C216.232727,25.0155254 215.943749,23.6934915 216.229203,22.6464407 C216.631833,21.1798644 218.025621,21.0591186 219.670502,21.0591186 L220.166521,21.0591186 C220.266077,21.0591186 220.437878,21.0494237 220.64492,21.035322 C221.078386,21.0009492 221.735633,20.9797966 221.925055,21.0044746 C221.952367,21.2627119 221.897743,21.8135593 221.873074,22.0717966 C221.85281,22.2780339 221.83519,22.4498983 221.83519,22.5503729 L221.83519,29.5386441 C221.83519,29.7554576 221.81845,29.9934237 221.804354,30.2410847 C221.762945,30.8201356 221.721537,31.4150508 221.838714,31.9183051 C221.828141,32.0249492 221.807878,32.2690847 222.007871,32.4409492 C222.15236,32.5722712 222.369093,32.6198644 222.802559,32.6198644 C223.198141,32.6198644 223.707376,32.5757966 223.893273,32.5237966 C224.120579,32.579322 224.375196,32.4136271 224.436868,32.1897627 C224.543473,31.9870508 224.530257,31.7358644 224.499421,31.4018305 C224.495897,31.3392542 224.488849,31.2881356 224.488849,31.2502373 L224.488849,21.4724746 C224.488849,21.2627119 224.502945,21.035322 224.516161,20.8044068 C224.546997,20.2747119 224.581357,19.7238644 224.492373,19.2452881 C224.506469,19.1007458 224.526733,18.8839322 224.358457,18.707661 C224.096791,18.4397288 223.631608,18.5428475 223.325891,18.5666441 L223.219286,18.5772203 C222.754103,18.5772203 222.248392,18.5560678 221.725061,18.5322712 C221.143582,18.5084746 220.541839,18.4811525 219.935691,18.4811525 C218.562167,18.4811525 216.81773,18.5974915 215.489138,19.5035254 C213.871569,20.6113898 213.162341,22.5776949 213.682148,24.5087458 C214.122662,26.1577627 215.36227,27.3696271 216.934907,27.7591864 L213.813421,31.8425085 C213.713865,31.9764746 213.696244,32.1553898 213.768489,32.3069831 C213.844257,32.4585763 213.995794,32.5511186 214.164071,32.5511186" fill="#00615D"></path> <path d="M138.640508,48.2674576 C139.207891,46.2985085 141.004309,44.8971525 143.138161,44.8627797 C145.264965,44.8627797 146.779453,46.5012203 147.312476,48.2674576 L138.640508,48.2674576 Z M147.391768,43.744339 C146.235859,42.8524068 144.710797,42.3597288 143.096752,42.3597288 C141.751421,42.3597288 140.419305,42.7113898 139.345331,43.3512542 C136.757749,44.8901017 135.360437,48.1132203 135.945441,51.1873898 C136.516347,54.1928136 139.049305,56.5477966 142.105595,56.912678 C142.412193,56.9470508 142.715267,56.964678 143.01746,56.964678 C146.094894,56.964678 148.78908,55.0600678 149.890367,52.1172203 C149.938823,51.9823729 149.921203,51.8307797 149.839267,51.7109153 C149.670109,51.4694237 149.31946,51.5214237 149.005814,51.507322 C148.641068,51.4905763 148.272797,51.4764746 147.929196,51.5284746 C147.839331,51.5381695 147.78735,51.5416949 147.75299,51.5416949 C147.523042,51.5522712 147.416437,51.6315932 147.295736,51.7761356 L147.202347,51.8863051 C147.019974,52.0854915 146.882534,52.3128814 146.752141,52.5296949 C146.634965,52.7297627 146.521312,52.9157288 146.387395,53.0602712 C145.244701,54.2924068 143.36899,54.7745085 141.692392,54.2721356 C140.103016,53.7970847 138.901293,52.4133559 138.588527,50.7502373 L149.787286,50.7502373 C150.027807,50.7502373 150.227801,50.5572203 150.227801,50.3130847 C150.248064,47.5861695 149.188186,45.1315932 147.391768,43.744339 Z" fill="#00615D"></path> <path d="M113.544399,48.2674576 C114.116186,46.2985085 115.90908,44.8971525 118.046457,44.8627797 C120.17326,44.8627797 121.686868,46.5012203 122.217248,48.2674576 L113.544399,48.2674576 Z M122.29654,43.744339 C121.143273,42.8524068 119.619093,42.3632542 118.008572,42.3632542 C116.628,42.3632542 115.261524,42.731661 114.163762,43.3997288 C111.672212,44.9183051 110.302212,48.0717966 110.832592,51.0666441 C111.376186,54.1408136 113.916193,56.5442712 117.010367,56.912678 C117.316084,56.9470508 117.619158,56.964678 117.918707,56.964678 C120.998785,56.964678 123.697376,55.0600678 124.795138,52.1172203 C124.846238,51.9823729 124.825974,51.8307797 124.743158,51.7109153 C124.574881,51.4694237 124.22335,51.5214237 123.914109,51.507322 C123.549363,51.4905763 123.177569,51.4764746 122.836611,51.5284746 C122.747627,51.5381695 122.695646,51.5416949 122.661286,51.5416949 C122.430457,51.5522712 122.320328,51.6315932 122.203151,51.7761356 L122.107119,51.8863051 C121.924746,52.0854915 121.79083,52.3128814 121.659556,52.5296949 C121.538855,52.7297627 121.428727,52.9157288 121.291286,53.0602712 C120.152116,54.2924068 118.272881,54.7745085 116.597164,54.2721356 C115.006907,53.7970847 113.806064,52.4133559 113.496823,50.7502373 L124.694701,50.7502373 C124.936103,50.7502373 125.132572,50.5572203 125.135215,50.3130847 C125.152836,47.5861695 124.092958,45.1315932 122.29654,43.744339 Z" fill="#00615D"></path> <path d="M225.490579,51.7038644 C224.726727,53.3943051 222.995505,54.4854237 221.071338,54.4854237 C220.751524,54.4854237 220.43083,54.4545763 220.118064,54.3964068 C217.946328,53.9654237 216.431839,52.0581695 216.431839,49.7587119 C216.431839,46.735661 218.948058,44.8663051 221.281023,44.8663051 C222.376141,44.8663051 223.407826,45.2620339 224.268592,46.0164746 C225.841228,47.3896271 226.353987,49.7825085 225.490579,51.7038644 M225.541678,43.7029153 C224.127627,42.6972881 222.224605,42.2257627 220.37973,42.4152542 C219.505749,42.5077966 218.689916,42.7457627 217.9569,43.1238644 C217.319916,43.4543729 216.866186,43.9056271 216.431839,44.3463051 L216.435363,43.5407458 C216.442412,43.303661 216.44946,43.0762712 216.267087,42.8867797 C216.074141,42.6902373 215.826572,42.6902373 215.478566,42.6902373 C215.434514,42.6902373 215.358746,42.6831864 215.265357,42.6770169 C214.838939,42.6426441 214.260984,42.5386441 213.978174,42.872678 C213.816945,43.0656949 213.844257,43.3309831 213.875093,43.6817627 L213.875093,59.9701017 C213.875093,60.0044746 213.868045,60.0591186 213.864521,60.1216949 C213.830161,60.4654237 213.816945,60.7271864 213.936765,60.9334237 C213.995794,61.0303729 214.171119,61.3300339 215.440682,61.3300339 C216.074141,61.3300339 216.294399,61.2233898 216.425672,61.0647458 C216.631833,60.8170847 216.608045,60.4072542 216.549016,59.7568136 C216.539325,59.6492881 216.528752,59.5637966 216.528752,59.515322 L216.528752,54.9675254 C216.721698,55.2187119 216.924334,55.4698983 217.178952,55.6770169 C218.121653,56.4341017 219.323376,56.8783051 220.651087,56.9611525 C220.813196,56.9708475 220.975305,56.9743729 221.136534,56.9743729 C223.521479,56.9743729 225.754887,55.9176271 227.108148,54.144339 C228.271106,52.6195932 228.766244,50.5915932 228.460527,48.5847458 C228.157453,46.5875932 227.094051,44.8081356 225.541678,43.7029153" fill="#00615D"></path> <path d="M163.828244,51.3698305 C163.157781,53.235661 161.327003,54.4854237 159.278611,54.4854237 C159.031042,54.4854237 158.783473,54.468678 158.538547,54.4307797 C156.277826,54.0861695 154.639994,52.1233898 154.639994,49.7587119 C154.639994,46.7391864 157.151807,44.8663051 159.482129,44.8663051 C160.545531,44.8663051 161.556952,45.2452881 162.410669,45.9574237 C163.93573,47.228339 164.520733,49.4555254 163.828244,51.3698305 M163.756,43.7126102 C162.338424,42.7008136 160.431878,42.2257627 158.587003,42.4152542 C157.709498,42.5077966 156.89719,42.7457627 156.164174,43.1238644 C155.528071,43.4543729 155.07346,43.9056271 154.639994,44.3427797 L154.643518,43.5407458 C154.649685,43.303661 154.656733,43.0762712 154.47436,42.8867797 C154.281415,42.6902373 154.030322,42.6902373 153.68672,42.6902373 C153.641788,42.6902373 153.566019,42.6831864 153.47263,42.6770169 C153.046212,42.6426441 152.464733,42.5386441 152.182804,42.8762034 C152.024219,43.0692203 152.048006,43.3309831 152.082367,43.6817627 L152.082367,59.9701017 C152.082367,60.0044746 152.076199,60.0591186 152.069151,60.1216949 C152.034791,60.4654237 152.020695,60.7271864 152.14492,60.9369492 C152.203068,61.0338983 152.378392,61.3300339 153.645312,61.3300339 C154.281415,61.3300339 154.501672,61.2233898 154.632945,61.0647458 C154.839106,60.8170847 154.815318,60.4037288 154.753646,59.7568136 C154.743074,59.6492881 154.736026,59.5637966 154.736026,59.515322 L154.736026,54.9675254 C154.925447,55.2187119 155.131608,55.4698983 155.386225,55.6770169 C156.329807,56.4341017 157.527125,56.8783051 158.859241,56.9611525 C161.388675,57.1153898 163.866129,56.0348475 165.315421,54.144339 C166.478379,52.6231186 166.970875,50.5986441 166.667801,48.5917966 C166.368251,46.5946441 165.308373,44.8143051 163.756,43.7126102" fill="#00615D"></path> <path d="M208.861158,50.7467119 C208.417119,52.9157288 206.479736,54.4889492 204.259543,54.4889492 C202.153003,54.4889492 200.381254,53.1431186 199.737222,51.0595932 C199.094071,48.9804746 199.802418,46.8696271 201.537164,45.6859661 C202.3389,45.1386441 203.210238,44.8592542 204.125627,44.8592542 C205.529106,44.8592542 206.922894,45.5449492 207.859428,46.6907119 C208.805653,47.8514576 209.160707,49.2907119 208.861158,50.7467119 M211.441691,42.9731525 C211.239055,42.6770169 210.502514,42.6144407 209.917511,42.6144407 C209.507833,42.6144407 209.280527,42.6664407 209.12899,42.7933559 C208.895518,42.9934237 208.836489,43.3415593 208.874373,44.1400678 C208.792437,44.0466441 208.706096,43.9541017 208.610064,43.8747797 C208.128141,43.4517288 207.573974,43.1141695 206.967826,42.8691525 C206.169614,42.5456949 205.281537,42.3808814 204.304476,42.3773559 C201.719537,42.3773559 199.469389,43.4790508 198.133749,45.4030508 C196.671241,47.5103729 196.4131,50.1817627 197.44919,52.5508475 C198.484399,54.9190508 200.611203,56.5407458 203.137994,56.8924068 C203.515955,56.9435254 203.894797,56.9708475 204.263068,56.9708475 C205.440122,56.9708475 206.510572,56.7090847 207.439177,56.1899661 C207.942244,55.9105763 208.410071,55.5562712 208.832965,55.1296949 C208.870849,55.0917966 208.905209,55.0503729 208.943093,55.0054237 C208.943093,55.0292203 208.94045,55.0538983 208.936926,55.0776949 C208.895518,55.4981017 208.847061,55.9731525 209.012695,56.2895593 C209.146611,56.5477966 209.345723,56.6747119 209.62501,56.6747119 L209.751878,56.6720678 C209.824122,56.6685424 209.865531,56.6579661 210.106932,56.6782373 C210.543923,56.7161356 211.11483,56.7989831 211.387068,56.5407458 C211.583537,56.3477288 211.580013,56.0727458 211.528032,55.4875254 L211.51746,44.5595932 C211.51746,44.4978983 211.531556,44.3947797 211.542129,44.2775593 C211.600277,43.6650169 211.627588,43.2446102 211.441691,42.9731525" fill="#00615D"></path> <path d="M180.857653,43.7267119 C180.892013,43.3133559 180.89818,43.0277966 180.712283,42.8277288 C180.574842,42.6831864 180.395994,42.6179661 179.690289,42.6179661 C179.39074,42.6179661 178.664772,42.6285424 178.434823,42.7457627 C178.189897,42.8656271 178.021621,43.1273898 177.808412,43.4825763 C177.763479,43.5618983 177.718547,43.6306441 177.684186,43.6782373 L171.276463,52.3719322 L171.276463,44.8143051 C171.276463,44.7252881 171.289678,44.5904407 171.307299,44.4397288 C171.365447,43.8263051 171.396283,43.3653559 171.224482,43.0515932 C171.007749,42.6452881 170.480894,42.6452881 170.305569,42.6452881 C170.157556,42.6452881 169.995447,42.6593898 169.844791,42.6734915 C169.734662,42.6805424 169.634225,42.6902373 169.551408,42.6902373 L169.256264,42.6831864 C168.660688,42.6831864 168.643068,43.1617627 168.636019,43.3204068 L168.626328,43.4825763 C168.595492,43.8818305 168.605183,44.2881356 168.615756,44.680339 C168.61928,44.8698305 168.626328,45.0557966 168.626328,45.2417627 L168.626328,55.4981017 C168.626328,55.5289492 168.622804,55.5730169 168.615756,55.6285424 C168.58492,56.0418983 168.577871,56.3274576 168.763768,56.5266441 C168.901209,56.6720678 169.080058,56.7372881 169.782238,56.7372881 C170.085312,56.7372881 170.807756,56.7231864 171.038585,56.6094915 C171.286154,56.4861017 171.461479,56.2137627 171.668521,55.8691525 C171.713453,55.7907119 171.753981,55.7210847 171.789222,55.6734915 L178.196945,46.983322 L178.196945,54.5374237 C178.196945,54.6299661 178.182849,54.7612881 178.169633,54.912 C178.110605,55.5289492 178.079768,55.9863729 178.25245,56.3001356 C178.469183,56.7064407 178.995158,56.7064407 179.167839,56.7064407 C179.318495,56.7064407 179.480605,56.692339 179.632141,56.6817627 C179.738746,56.6720678 179.841826,56.6650169 179.921119,56.6650169 L180.217145,56.6685424 C180.816244,56.6685424 180.832984,56.1899661 180.840032,56.0348475 L180.84708,55.872678 C180.881441,55.4698983 180.870868,55.0635932 180.860296,54.6713898 C180.854129,54.4854237 180.850605,54.2959322 180.850605,54.1099661 L180.850605,43.8545085 C180.850605,43.8263051 180.854129,43.7787119 180.857653,43.7267119" fill="#00615D"></path> <path d="M194.932971,43.2340339 C194.932971,43.083322 194.88099,42.731661 194.416688,42.7113898 C194.378804,42.7078644 194.317132,42.704339 194.227267,42.6937627 C194.073087,42.6699661 193.735653,42.6426441 193.418482,42.6426441 C192.833479,42.6426441 192.531286,42.7387119 192.372701,42.9731525 C192.165659,43.2860339 192.2009,43.8095593 192.269621,44.5181695 C192.28636,44.6768136 192.300457,44.8107797 192.300457,44.8936271 L192.300457,48.2674576 L186.869794,48.2674576 C186.79755,48.2674576 186.662752,48.2780339 186.508572,48.2921356 C186.312103,48.3124068 186.068058,48.3362034 185.86454,48.3362034 L185.833704,48.3362034 C185.833704,48.2401356 185.844277,48.1264407 185.847801,48.0647458 C185.853968,47.971322 185.857492,47.8928814 185.857492,47.8373559 L185.857492,45.4858983 C185.857492,45.2893559 185.875113,45.0760678 185.888328,44.8522034 C185.923569,44.3568814 185.961453,43.7884068 185.857492,43.3239322 C185.86454,43.2137627 185.885685,42.9863729 185.703312,42.8145085 C185.42755,42.5456949 184.956199,42.6452881 184.604669,42.6770169 C184.535949,42.6831864 184.477801,42.6902373 184.450489,42.6902373 C184.360624,42.6902373 184.277807,42.6805424 184.202039,42.6734915 C183.582675,42.6179661 183.349203,42.8797288 183.242598,43.1212203 C183.111325,43.42 183.149209,43.8333559 183.183569,44.1982373 C183.194141,44.3154576 183.204714,44.4221017 183.204714,44.5014237 L183.204714,55.5765424 L183.197666,55.6699661 C183.163305,56.0797966 183.149209,56.3380339 183.328058,56.5266441 C183.448759,56.6544407 183.562412,56.7267119 184.488373,56.7267119 C185.506842,56.7267119 185.589659,56.6473898 185.696264,56.5477966 C185.926212,56.3345085 185.926212,55.9969492 185.871588,55.3253559 C185.86454,55.2398644 185.857492,55.1702373 185.857492,55.132339 C185.857492,54.6440678 185.840752,54.144339 185.819608,53.6419661 C185.781723,52.6645424 185.741196,51.6553898 185.853968,50.7290847 C186.119158,50.6814915 186.546457,50.6982373 186.93499,50.7229153 C187.151723,50.739661 187.361408,50.7502373 187.554354,50.7502373 L192.197376,50.7502373 C192.262572,50.7502373 192.324244,50.7502373 192.383273,50.7467119 C192.403537,50.9837966 192.358605,51.4491525 192.334817,51.6694915 C192.317196,51.8722034 192.300457,52.0475932 192.300457,52.1612881 L192.300457,54.691661 C192.300457,54.743661 192.289884,54.8432542 192.279312,54.9710508 C192.2009,55.8215593 192.190328,56.2481356 192.417633,56.4957966 C192.510141,56.5997966 192.627318,56.7267119 193.591164,56.7267119 C194.331228,56.7267119 194.481884,56.6509153 194.568225,56.6059661 C194.833415,56.4755254 194.970855,56.3345085 194.954116,55.9696271 C194.954116,55.9317288 194.950592,55.8797288 194.950592,55.8109831 C194.963807,54.9816271 194.956759,54.1513898 194.954116,53.3185085 L194.950592,47.0282712 C194.950592,46.6598644 194.970855,46.2747119 194.988476,45.8851525 C195.029003,45.0522712 195.070412,44.187661 194.947068,43.3856271 C194.932971,43.3098305 194.932971,43.2657627 194.932971,43.2340339" fill="#00615D"></path> <path d="M242.147312,43.2340339 C242.147312,43.083322 242.091807,42.731661 241.631029,42.7113898 C241.589621,42.7078644 241.531473,42.704339 241.441608,42.6937627 C241.283023,42.6699661 240.949994,42.6426441 240.629299,42.6426441 C240.044296,42.6426441 239.741222,42.7387119 239.587042,42.9731525 C239.376476,43.2860339 239.410836,43.8095593 239.483961,44.5181695 C239.497177,44.6768136 239.511273,44.8107797 239.511273,44.8936271 L239.511273,48.2674576 L234.084135,48.2674576 C234.008367,48.2674576 233.877093,48.2780339 233.719389,48.2921356 C233.52292,48.3124068 233.278875,48.3362034 233.075357,48.3362034 L233.044521,48.3362034 C233.048045,48.2401356 233.055093,48.1264407 233.06126,48.0647458 C233.064785,47.971322 233.071833,47.8928814 233.071833,47.8373559 L233.071833,45.4858983 C233.071833,45.2893559 233.085929,45.0760678 233.099145,44.8522034 C233.133505,44.3568814 233.171389,43.7884068 233.068309,43.3239322 C233.078881,43.2137627 233.096502,42.9863729 232.913248,42.8109831 C232.638367,42.5456949 232.167016,42.6452881 231.815486,42.6770169 C231.750289,42.6831864 231.692141,42.6902373 231.663949,42.6902373 C231.571441,42.6902373 231.492148,42.6805424 231.416379,42.6734915 C230.804064,42.6214915 230.562662,42.8797288 230.456058,43.1212203 C230.325666,43.42 230.36355,43.8333559 230.39791,44.1982373 C230.408482,44.3154576 230.418174,44.4221017 230.418174,44.5014237 L230.418174,55.5765424 L230.412006,55.6699661 C230.374122,56.0797966 230.360026,56.3380339 230.542399,56.5266441 C230.6631,56.6544407 230.773228,56.7267119 231.701833,56.7267119 C232.717659,56.7267119 232.803119,56.6473898 232.910605,56.5477966 C233.137029,56.3345085 233.137029,55.9969492 233.085929,55.3253559 C233.078881,55.2425085 233.071833,55.1702373 233.071833,55.132339 C233.071833,54.6440678 233.051569,54.144339 233.030424,53.6419661 C232.99254,52.6645424 232.954656,51.6553898 233.064785,50.7290847 C233.329974,50.6814915 233.757273,50.6982373 234.145807,50.7229153 C234.36254,50.739661 234.572225,50.7502373 234.76517,50.7502373 L239.410836,50.7502373 C239.476913,50.7502373 239.538585,50.7502373 239.593209,50.7467119 C239.617878,50.9837966 239.569421,51.4491525 239.549158,51.6694915 C239.528013,51.8722034 239.511273,52.0475932 239.511273,52.1612881 L239.511273,54.691661 C239.511273,54.743661 239.500701,54.8432542 239.490129,54.9710508 C239.410836,55.8215593 239.401145,56.2481356 239.62845,56.4957966 C239.724482,56.5997966 239.841659,56.7267119 240.805505,56.7267119 C241.541164,56.7267119 241.692701,56.6509153 241.782566,56.6059661 C242.044232,56.4755254 242.185196,56.3345085 242.167576,55.9696271 C242.164051,55.9317288 242.164051,55.8797288 242.164051,55.8109831 C242.174624,54.9816271 242.1711,54.1513898 242.167576,53.3185085 L242.164051,47.0282712 C242.164051,46.6598644 242.181672,46.2747119 242.201936,45.8851525 C242.23982,45.0522712 242.284752,44.187661 242.157884,43.3856271 C242.147312,43.3098305 242.147312,43.2657627 242.147312,43.2340339" fill="#00615D"></path> <path d="M271.414212,55.2257627 C271.407164,55.132339 271.396592,55.0574237 271.396592,55.016 L271.396592,43.8545085 C271.396592,43.771661 271.40364,43.6958644 271.407164,43.6306441 C271.427428,43.3794576 271.458264,42.952 270.96665,42.7281356 C270.725248,42.6179661 270.31645,42.6320678 269.923511,42.6664407 C269.813383,42.6770169 269.713826,42.6902373 269.638058,42.6902373 L265.669904,42.6902373 C262.871756,42.6902373 260.71764,44.4150508 260.428662,46.8837288 C260.277125,48.1713898 260.631299,49.4105763 261.430392,50.3747797 C262.05328,51.128339 262.889376,51.6448136 263.84265,51.8757288 L260.724688,55.9555254 C260.621608,56.0894915 260.603987,56.2684068 260.679756,56.42 C260.811029,56.6888136 261.134367,56.6579661 261.588096,56.6993898 C261.870907,56.7267119 262.183672,56.7540339 262.462958,56.7540339 C262.868232,56.7540339 263.154566,56.6958644 263.357203,56.5715932 C263.787145,56.3098305 264.135151,55.7184407 264.441749,55.1949153 C264.555402,55.0018983 264.658482,54.8265085 264.747466,54.6951864 L267.821376,50.4267797 C267.917408,50.2919322 267.931505,50.1130169 267.855736,49.9684746 C267.779968,49.8204068 267.628431,49.7278644 267.462797,49.7278644 L266.585293,49.7313898 C264.489325,49.7313898 263.24355,49.424678 263.064701,47.8585085 C262.97836,47.1252203 263.143994,46.515322 263.546624,46.047322 C264.01445,45.5096949 264.778302,45.200339 265.694572,45.1730169 C265.958881,45.1659661 266.224071,45.1624407 266.492785,45.1624407 L268.113878,45.1730169 C268.168502,45.1730169 268.268058,45.1659661 268.388759,45.1553898 C268.50946,45.1421695 268.657473,45.1280678 268.791389,45.1245424 C268.856585,45.3554576 268.815177,45.8164068 268.784341,46.1574915 C268.764077,46.3707797 268.746457,46.5708475 268.746457,46.7321356 L268.746457,55.2566102 C268.746457,55.2909831 268.740289,55.352678 268.733241,55.4249492 C268.691833,55.9757966 268.677736,56.3239322 268.897994,56.5372203 C269.029267,56.6685424 269.201068,56.7267119 269.868887,56.7267119 C271.083826,56.7267119 271.193955,56.5962712 271.289987,56.4825763 C271.479408,56.2684068 271.479408,55.9352542 271.414212,55.2257627" fill="#00615D"></path> <path d="M135.150752,43.2587119 C135.163968,43.0762712 134.971023,42.8215593 134.802746,42.7457627 C134.603633,42.6355932 134.252103,42.6426441 133.921717,42.6734915 C133.845949,42.6805424 133.784277,42.6902373 133.73582,42.6902373 L128.841704,42.6902373 C128.642592,42.6902373 128.40119,42.6699661 128.146572,42.6452881 C127.465537,42.5871186 126.743093,42.5562712 126.288482,42.7184407 C126.164257,42.7078644 126.026817,42.7492881 125.934309,42.8488814 C125.831228,42.9555254 125.78982,43.1000678 125.813608,43.2340339 L125.793344,43.2340339 C125.676167,43.5680678 125.710527,43.9849492 125.744887,44.3533559 C125.75546,44.4908475 125.768675,44.6221695 125.768675,44.732339 C125.768675,44.9764746 125.965145,45.1730169 126.20919,45.1730169 L128.494579,45.1730169 C128.549203,45.1730169 128.653164,45.1659661 128.772984,45.1553898 C128.897209,45.1421695 129.048746,45.1280678 129.186186,45.1245424 C129.247859,45.3413559 129.207331,45.7820339 129.179138,46.1125424 C129.158875,46.3187797 129.141254,46.5082712 129.141254,46.6633898 L129.141254,55.2019661 C129.141254,55.236339 129.135087,55.2945085 129.128039,55.3703051 C129.06901,56.004 129.065486,56.3274576 129.269003,56.5336949 C129.399395,56.6650169 129.547408,56.7267119 130.335929,56.7267119 C131.461003,56.7267119 131.567608,56.6235932 131.667164,56.5204746 C131.884778,56.3001356 131.87773,55.9449492 131.812534,55.1878644 C131.801961,55.0944407 131.794913,55.0221695 131.794913,54.9842712 L131.794913,46.4642034 C131.794913,46.3434576 131.778174,46.1742373 131.760553,45.9856271 C131.740289,45.7652881 131.698881,45.3413559 131.726193,45.1386441 C131.825749,45.1280678 132.073318,45.1421695 132.26274,45.1553898 C132.524405,45.1765424 132.672418,45.1730169 133.040688,45.200339 C133.340238,45.2241356 133.70146,45.2514576 134.017749,45.2514576 C134.565749,45.2514576 134.861775,45.1730169 135.044148,44.9835254 C135.374534,44.6389153 135.163968,43.3821017 135.160444,43.3724068 C135.147228,43.2966102 135.150752,43.2684068 135.150752,43.2587119" fill="#00615D"></path> <path d="M102.132431,53.6278644 C102.143003,53.4868475 102.152695,53.3731525 102.152695,53.3185085 L102.152695,51.0842712 C102.152695,50.9978983 102.150051,50.9115254 102.143003,50.8295593 C102.139479,50.7810847 102.135955,50.7229153 102.135955,50.6744407 C102.29454,50.6471186 102.858399,50.6709153 103.268077,50.712339 C103.495383,50.7326102 103.698019,50.7502373 103.883916,50.7502373 C105.22308,50.7502373 106.279434,50.8295593 106.658277,51.7867119 C106.871486,52.3305085 106.833601,52.8434576 106.544624,53.2665085 C106.169305,53.8208814 105.398405,54.1787119 104.586096,54.1787119 L103.309486,54.1787119 C103.240765,54.1787119 103.106849,54.1892881 102.941215,54.2033898 C102.686598,54.223661 102.31128,54.2509831 102.094547,54.248339 C102.094547,54.0482712 102.121859,53.7591864 102.132431,53.6278644 M106.279434,46.6052203 C106.31027,47.2521356 105.956096,47.996 105.091807,48.2057627 C104.768469,48.2815593 104.286547,48.2886102 103.773788,48.2745085 C103.526219,48.2674576 103.357942,48.2542373 102.937691,48.2850847 C102.672502,48.3053559 102.291016,48.3229831 102.118334,48.3088814 C102.125383,48.2401356 102.132431,48.1713898 102.135955,48.1229153 C102.146527,48.0268475 102.152695,47.9369492 102.152695,47.8787797 L102.152695,45.1694915 C102.349164,45.1624407 102.549158,45.1589153 102.74827,45.1518644 C103.567627,45.1245424 104.396675,45.1139661 104.999299,45.200339 C105.900592,45.3246102 106.252122,46.0332203 106.279434,46.6052203 M108.06528,49.4969492 C108.09964,49.4070508 108.103164,49.3312542 108.103164,49.3109831 C108.103164,49.204339 108.068804,49.0941695 107.993035,49.0007458 C108.371878,48.5979661 108.653807,48.0955932 108.812392,47.5174237 C109.122514,46.3848814 108.908424,45.1553898 108.234437,44.2255593 C107.119055,42.6902373 105.216032,42.6902373 103.822244,42.6902373 L101.654032,42.6902373 C101.588836,42.6902373 101.468135,42.6770169 101.323646,42.6629153 C101.058457,42.6391186 100.721904,42.6073898 100.442617,42.6073898 C100.057608,42.6073898 99.8408746,42.6629153 99.6858135,42.8004068 C99.4030032,43.0515932 99.3933119,43.5477966 99.4787717,44.6353898 C99.4893441,44.7869831 99.5034405,44.9147797 99.5034405,44.9835254 L99.5034405,55.5351186 L99.4928682,55.6355932 C99.4549839,56.0586441 99.4408875,56.3274576 99.6206174,56.5169492 C99.7712733,56.6817627 99.9915305,56.7126102 100.270817,56.7126102 C100.469929,56.7126102 100.711331,56.6958644 100.893704,56.6782373 C100.976521,56.6720678 101.045241,56.6650169 101.079601,56.6650169 L103.874225,56.6650169 C105.233653,56.6650169 107.102315,56.6650169 108.385974,55.2495593 C109.314579,54.223661 109.655537,52.6680678 109.245859,51.2834576 C109.029125,50.5431186 108.619447,49.9305763 108.06528,49.4969492" fill="#00615D"></path> <path d="M256.05083,50.8533559 C255.565383,52.960678 253.638572,54.4889492 251.47036,54.4889492 C249.36382,54.4889492 247.422913,53.0426441 246.855531,51.0534237 C246.274051,48.9972203 247.089003,46.7665085 248.837846,45.6269153 C249.618437,45.1174915 250.461582,44.8592542 251.342611,44.8592542 C252.764592,44.8592542 254.175119,45.5616949 255.111653,46.7391864 C256.054354,47.9272542 256.388264,49.3867797 256.05083,50.8533559 M258.656032,42.9731525 C258.453395,42.6770169 257.713331,42.6109153 257.131852,42.6109153 C256.722174,42.6109153 256.491344,42.6664407 256.339807,42.7933559 C256.106334,42.9934237 256.047305,43.3415593 256.088714,44.1435932 C256.005897,44.0466441 255.916913,43.9576271 255.823524,43.8747797 C255.338958,43.4517288 254.788315,43.1141695 254.182167,42.8691525 C253.383955,42.5456949 252.495878,42.3808814 251.518817,42.3773559 C248.906566,42.3773559 246.641441,43.499322 245.310206,45.4550508 C243.871486,47.5658983 243.633608,50.2302373 244.676746,52.5852203 C245.71636,54.9331525 247.83964,56.5442712 250.351453,56.8924068 C250.730296,56.9435254 251.105614,56.9708475 251.473884,56.9708475 C252.654463,56.9708475 253.721389,56.7090847 254.653518,56.1899661 C255.156585,55.9105763 255.620887,55.5562712 256.043781,55.1296949 C256.081666,55.0917966 256.11955,55.0503729 256.157434,55.0054237 C256.15391,55.0292203 256.150386,55.0538983 256.150386,55.0776949 C256.106334,55.4981017 256.061402,55.9731525 256.223511,56.2895593 C256.357428,56.551322 256.55654,56.6747119 256.835826,56.6747119 L256.966219,56.6720678 C257.034939,56.6685424 257.076347,56.6579661 257.317749,56.6782373 C257.75474,56.7161356 258.32917,56.7989831 258.597884,56.5407458 C258.793473,56.3477288 258.793473,56.0727458 258.742373,55.4910508 L258.731801,44.5595932 C258.731801,44.4978983 258.742373,44.3983051 258.752945,44.2775593 C258.814617,43.6650169 258.838405,43.2446102 258.656032,42.9731525" fill="#00615D"></path> <path d="M97.1281865,71.9124746 L91.0711125,86.1798644 L103.103325,86.1798644 L97.1281865,71.9124746 Z M124.254186,104 L120.471929,104 C119.997055,104 119.615569,103.613966 119.615569,103.142441 L119.615569,65.3128814 C119.615569,64.8378305 119.997055,64.452678 120.471929,64.452678 L147.660482,64.452678 C148.131833,64.452678 148.517723,64.8378305 148.517723,65.3128814 L148.517723,103.142441 C148.517723,103.613966 148.131833,104 147.660482,104 L143.878225,104 C143.40335,104 143.01746,103.613966 143.01746,103.142441 L143.01746,69.5962712 L125.111428,69.5962712 L125.111428,103.142441 C125.111428,103.613966 124.729942,104 124.254186,104 Z M165.532154,104 L161.749897,104 C161.275023,104 160.889132,103.613966 160.889132,103.142441 L160.889132,69.5962712 L153.111408,69.5962712 C152.640058,69.5962712 152.255048,69.2102373 152.255048,68.7387119 L152.255048,65.3128814 C152.255048,64.8378305 152.640058,64.452678 153.111408,64.452678 L174.167119,64.452678 C174.641994,64.452678 175.023479,64.8378305 175.023479,65.3128814 L175.023479,68.7387119 C175.023479,69.2102373 174.641994,69.5962712 174.167119,69.5962712 L166.389395,69.5962712 L166.389395,103.142441 C166.389395,103.613966 166.003505,104 165.532154,104 Z M200.473762,104 L179.728174,104 C179.253299,104 178.868289,103.613966 178.868289,103.142441 L178.868289,65.3128814 C178.868289,64.8378305 179.253299,64.452678 179.728174,64.452678 L200.473762,64.452678 C200.948637,64.452678 201.334527,64.8378305 201.334527,65.3128814 L201.334527,68.7387119 C201.334527,69.2102373 200.948637,69.5962712 200.473762,69.5962712 L184.367672,69.5962712 L184.367672,81.5289492 L199.912547,81.5289492 C200.387421,81.5289492 200.769788,81.9105763 200.769788,82.3856271 L200.769788,85.8114576 C200.769788,86.2865085 200.387421,86.6690169 199.912547,86.6690169 L184.367672,86.6690169 L184.367672,98.8564068 L200.473762,98.8564068 C200.948637,98.8564068 201.334527,99.2415593 201.334527,99.7166102 L201.334527,103.142441 C201.334527,103.613966 200.948637,104 200.473762,104 Z M226.635916,103.665966 L211.665473,84.2893559 C211.432,83.9870508 211.424952,83.5498983 211.672521,83.2361356 L226.185711,64.8448814 C226.340772,64.6104407 226.60508,64.452678 226.908154,64.452678 L231.403164,64.452678 C231.591704,64.4562034 231.781125,64.5178983 231.939711,64.6448136 C232.307981,64.9409492 232.366129,65.4821017 232.070103,65.8505085 L217.929588,83.3701017 L232.662154,102.574847 C232.793428,102.725559 232.876244,102.925627 232.876244,103.142441 C232.876244,103.613966 232.490354,104 232.015479,104 L227.314309,104 C227.059691,103.996475 226.805074,103.88278 226.635916,103.665966 Z M205.09564,103.142441 L205.09564,65.3128814 C205.09564,64.8378305 205.481531,64.452678 205.952881,64.452678 L209.735138,64.452678 C210.210013,64.452678 210.595023,64.8378305 210.595023,65.3128814 L210.595023,103.142441 C210.595023,103.613966 210.210013,104 209.735138,104 L205.952881,104 C205.481531,104 205.09564,103.613966 205.09564,103.142441 Z M255.118701,71.9124746 L249.061627,86.1798644 L261.092958,86.1798644 L255.118701,71.9124746 Z M240.815196,104 L236.727222,104 C236.613569,104 236.499916,103.975322 236.389788,103.931254 C235.952797,103.741763 235.752804,103.238508 235.938701,102.801356 L252.22364,65.0070508 C252.347865,64.6827119 252.661511,64.452678 253.0289,64.452678 L257.217312,64.452678 C257.551222,64.4562034 257.868392,64.6518644 258.005833,64.975322 L274.180643,102.750237 C274.243196,102.867458 274.277556,103.001424 274.277556,103.142441 C274.277556,103.613966 273.891666,104 273.416791,104 L269.327936,104 C268.998431,104 268.68126,103.803458 268.54382,103.48 L263.299055,91.3234576 L246.848482,91.3234576 L241.616932,103.445627 C241.493588,103.769085 241.179942,104 240.815196,104 Z M82.8255627,104 L78.7367074,104 C78.6230547,104 78.510283,103.975322 78.4001543,103.931254 C77.9658071,103.741763 77.7631704,103.238508 77.9525916,102.801356 L94.2375305,65.0070508 C94.3617556,64.6827119 94.6745209,64.452678 95.0392669,64.452678 L99.2312026,64.452678 C99.5651125,64.4562034 99.8778778,64.6518644 100.019723,64.975322 L116.194534,102.750237 C116.252682,102.867458 116.287042,103.001424 116.287042,103.142441 C116.287042,103.613966 115.902032,104 115.430682,104 L111.341826,104 C111.007916,104 110.691627,103.803458 110.554186,103.48 L105.309421,91.3234576 L88.8588489,91.3234576 L83.6308232,103.445627 C83.5065981,103.769085 83.1938328,104 82.8255627,104 Z" fill="#00615D"></path> </g> </svg> 