<?xml version="1.0" encoding="UTF-8"?> <svg xmlns="http://www.w3.org/2000/svg" id="header_logo" viewBox="0 0 210 67"> <defs> <style> .logo-cls-1{fill:#faa000;}.logo-cls-1,.logo-cls-2{fill-rule:evenodd;}.logo-cls-2,.logo-cls-3{fill:#000;}.logo-cls-3{font-size:12.5px;font-family:Lato-Regular,Lato;} </style> </defs> <g transform="translate(-369 -89)"> <g transform="translate(370.756 89)"> <path class="logo-cls-1" d="M1724.09,1404.036c-.036-.018-.072-.018-.09-.036.018.018.036.018.054.036Z" transform="translate(-1693.165 -1378.888)"></path> <path class="logo-cls-1" d="M1703.322,1399.125h.107c-.018-.018-.036-.018-.053-.036A2.852,2.852,0,0,1,1703,1399C1703.108,1399.036,1703.215,1399.09,1703.322,1399.125Z" transform="translate(-1672.541 -1373.978)"></path> <path class="logo-cls-1" d="M2707.036,905.107c-.018-.036-.018-.072-.036-.107v.018C2707.018,905.054,2707.018,905.071,2707.036,905.107Z" transform="translate(-2658.583 -888.814)"></path> <path class="logo-cls-2" d="M5694.238,626.943a3.573,3.573,0,0,0-.554-2.021,2.845,2.845,0,0,0-1.341-1.163,5.655,5.655,0,0,0-1.9-.5c-.609-.054-1.43-.072-2.468-.072h-.984v8.353h.483c.662,0,1.289-.018,1.877-.036a9.293,9.293,0,0,0,1.521-.125,4.984,4.984,0,0,0,1.2-.358,3.47,3.47,0,0,0,.966-.608,3.674,3.674,0,0,0,.947-1.449A6.14,6.14,0,0,0,5694.238,626.943Zm7.19-.161a10.75,10.75,0,0,1-.626,3.7,7.915,7.915,0,0,1-1.769,2.933,11.515,11.515,0,0,1-1.558,1.342,9.538,9.538,0,0,1-1.879,1.055,12.011,12.011,0,0,1-2.234.68,13.952,13.952,0,0,1-2.7.233h-3.666v9.1H5680V618h10.8a17.64,17.64,0,0,1,4.167.429,9.706,9.706,0,0,1,3.167,1.4,6.926,6.926,0,0,1,2.432,2.79A9.393,9.393,0,0,1,5701.428,626.782Z" transform="translate(-5578.409 -606.947)"></path> <path class="logo-cls-2" d="M7232.08,637.174a3.512,3.512,0,0,0-.521-2.021,3.219,3.219,0,0,0-1.573-1.091,5.451,5.451,0,0,0-1.753-.268c-.732-.036-1.734-.036-2.987-.036h-1.287v6.976h.375c1.823,0,3.078-.018,3.774-.036a6.029,6.029,0,0,0,2.147-.5,2.817,2.817,0,0,0,1.377-1.216A3.516,3.516,0,0,0,7232.08,637.174Zm-1.754-11.3a3.232,3.232,0,0,0-.358-1.4,2,2,0,0,0-1.074-1.019,4.368,4.368,0,0,0-1.627-.322c-.625-.036-1.574-.036-2.824-.036h-.483v5.884h.876c1.2,0,2.038,0,2.52-.036a3.6,3.6,0,0,0,1.487-.393A2.221,2.221,0,0,0,7230,627.48,3.816,3.816,0,0,0,7230.325,625.87Zm8.962,11.447a8.167,8.167,0,0,1-.788,3.649,7.7,7.7,0,0,1-2.112,2.594,9.693,9.693,0,0,1-3.451,1.753,17.992,17.992,0,0,1-4.794.519H7217V618h9.837a33.508,33.508,0,0,1,4.651.232,9.078,9.078,0,0,1,2.969.966,5.451,5.451,0,0,1,2.235,2.164,6.421,6.421,0,0,1,.734,3.094,6.576,6.576,0,0,1-1.021,3.631,6.024,6.024,0,0,1-2.808,2.343v.143a7.632,7.632,0,0,1,4.132,2.218A6.39,6.39,0,0,1,7239.287,637.317Z" transform="translate(-7087.918 -606.947)"></path> <path class="logo-cls-2" d="M8850,645.83V618h18.83v5.294H8856.96v4.883H8867.9v5.312H8856.96v7.029h11.871v5.312Z" transform="translate(-8691.711 -606.947)"></path> <path class="logo-cls-2" d="M3878.958,630.61h-2.2a19.447,19.447,0,0,1-2.54-.125,3.443,3.443,0,0,1-1.68-.7,3.326,3.326,0,0,1-.984-1.234,4.312,4.312,0,0,1-.018-3.4,3.113,3.113,0,0,1,.965-1.216,3.592,3.592,0,0,1,1.7-.715,22.391,22.391,0,0,1,2.522-.107h2.235ZM3874.576,618a18.393,18.393,0,0,0-4.169.411,8.883,8.883,0,0,0-3.094,1.306,7.991,7.991,0,0,0-2.414,2.594,7.178,7.178,0,0,0-.948,3.72,8.869,8.869,0,0,0,1.4,5.169,9.062,9.062,0,0,0,3.97,3.094L3861,645.83h8.318l7.012-10.195h2.628v10.177l6.957-6.958V618Z" transform="translate(-3791.943 -606.947)"></path> <path class="logo-cls-2" d="M10315.224,623.294h8.226V618H10300v5.294h8.228v22.447l7-6.993Z" transform="translate(-10115.777 -606.947)"></path> <path class="logo-cls-1" d="M1731.089,1412.018c-.036,0-.054-.018-.089-.018.018,0,.054.018.072.018Z" transform="translate(-1700.04 -1386.745)"></path> <path class="logo-cls-1" d="M1710.34,1407.108h.107c-.018,0-.053-.018-.071-.018-.126-.036-.25-.053-.376-.089C1710.108,1407.036,1710.233,1407.072,1710.34,1407.108Z" transform="translate(-1679.415 -1381.835)"></path> <path class="logo-cls-1" d="M907.694,13.057a7.673,7.673,0,0,0,.626.912c-.3-.554-.7-1.288-1-1.824a25.261,25.261,0,0,0-4.239-5.223c-.572-.5-1.341-1.163-1.932-1.645A25.959,25.959,0,0,0,889.289.25l-.25-.036a25.808,25.808,0,0,0-6.385-.036A27.743,27.743,0,0,0,878.9.894,15.9,15.9,0,0,0,876,1.914,18.3,18.3,0,0,1,883.691.59C893.171.715,903.151,6.081,907.694,13.057Z" transform="translate(-860.332 0)"></path> <path class="logo-cls-1" d="M173.482,178.78c1.556,2.218,2.128.215,2.182-.018a7.149,7.149,0,0,0-1.055-4.793c-5.115-7.888-16.437-13.951-27.151-14.094-5.706-.072-10.231,1.538-13.039,4.239l-1.18,1.216A24.679,24.679,0,0,0,129,171.768c2.361-4.776,7.995-7.87,16.044-7.762C156.276,164.167,168.116,170.516,173.482,178.78Z" transform="translate(-126.693 -157.013)"></path> <path class="logo-cls-1" d="M40.011,712.979c1.717,2.272,4.239-.018,4.543-2.415a3.66,3.66,0,0,0-.465-2.432c-5.2-8.013-16.687-14.165-27.58-14.309C6.85,693.68.519,698.312.054,704.912l-.018.286c-.018.68-.036,1.216-.036,1.7v.072A23.987,23.987,0,0,0,.286,710.6a23.489,23.489,0,0,0,.93,3.917c-2.665-8.138,3.47-14.488,14.13-14.344C25.076,700.3,35.342,705.807,40.011,712.979Z" transform="translate(0 -681.41)"></path> <path class="logo-cls-1" d="M176.982,1437.706a13.856,13.856,0,0,0-2.218-.895c-4.847-1.324-9.229-4.615-10.749-8.424-1.967-4.9,1.574-8.818,7.906-8.729,5.562.072,10.821,4.257,12.878,5.67,3.058,2.092,6.707,1.252,7.19-.912a2.12,2.12,0,0,0-.071-1.288c-.411-1.037-3.363-3.7-5.634-5.294a26.816,26.816,0,0,0-14.649-4.918c-9.05-.108-14.094,5.473-11.286,12.484a16.374,16.374,0,0,0,3.506,5.223l.787.769a22.608,22.608,0,0,0,2.164,1.825,18.781,18.781,0,0,0,2.182,1.467,19.526,19.526,0,0,0,2.218,1.2c1.538.68,1.538.68,2.325.966,1.592.518,1.61.536,2.45.751.393.072.912.2,1.306.268A1.618,1.618,0,0,0,176.982,1437.706Z" transform="translate(-156.717 -1387.644)"></path> </g> </g> </svg> 